<mxfile host="65bd71144e">
    <diagram id="CzMVTpJzSr0Y2yefn343" name="Page-1">
        <mxGraphModel dx="2114" dy="1230" grid="1" gridSize="10" guides="1" tooltips="1" connect="1" arrows="1" fold="1" page="1" pageScale="1" pageWidth="827" pageHeight="1169" math="0" shadow="0">
            <root>
                <mxCell id="0"/>
                <mxCell id="1" parent="0"/>
                <mxCell id="2" value="&lt;b&gt;FLOWCHART KEY&lt;/b&gt;" style="text;html=1;strokeColor=none;fillColor=none;align=center;verticalAlign=middle;whiteSpace=wrap;rounded=0;" parent="1" vertex="1">
                    <mxGeometry x="1440" y="1400" width="160" height="40" as="geometry"/>
                </mxCell>
                <mxCell id="4" value="&lt;b&gt;Event&lt;/b&gt;" style="shape=hexagon;perimeter=hexagonPerimeter2;whiteSpace=wrap;html=1;fixedSize=1;fillColor=#dae8fc;strokeColor=#6c8ebf;fontColor=#000000;" parent="1" vertex="1">
                    <mxGeometry x="1440" y="1640" width="160" height="40" as="geometry"/>
                </mxCell>
                <mxCell id="5" value="&lt;b&gt;Input OR Output&lt;/b&gt;" style="shape=parallelogram;perimeter=parallelogramPerimeter;whiteSpace=wrap;html=1;fixedSize=1;fillColor=#ffe6cc;strokeColor=#d79b00;fontColor=#000000;" parent="1" vertex="1">
                    <mxGeometry x="1440" y="1720" width="160" height="40" as="geometry"/>
                </mxCell>
                <mxCell id="6" value="Start / End" style="ellipse;whiteSpace=wrap;html=1;fontSize=17;fillColor=#e51400;strokeColor=#B20000;fontColor=#ffffff;fontStyle=1" parent="1" vertex="1">
                    <mxGeometry x="1440" y="1480" width="160" height="40" as="geometry"/>
                </mxCell>
                <mxCell id="7" value="" style="group" parent="1" vertex="1" connectable="0">
                    <mxGeometry x="1420" y="1800" width="205.08999999999992" height="45" as="geometry"/>
                </mxCell>
                <mxCell id="8" value="&lt;b&gt;Decision&lt;/b&gt;" style="rhombus;whiteSpace=wrap;html=1;fillColor=#fff2cc;strokeColor=#d6b656;fontColor=#000000;" parent="7" vertex="1">
                    <mxGeometry x="42.11981566820282" width="117.97235023041475" height="40" as="geometry"/>
                </mxCell>
                <mxCell id="9" value="TRUE" style="ellipse;whiteSpace=wrap;html=1;aspect=fixed;fontColor=#ffffff;fillColor=#a20025;strokeColor=#6F0000;fontStyle=1" parent="7" vertex="1">
                    <mxGeometry x="160.08999999999992" width="45" height="45" as="geometry"/>
                </mxCell>
                <mxCell id="10" value="FALSE" style="ellipse;whiteSpace=wrap;html=1;aspect=fixed;fontColor=#ffffff;fillColor=#a20025;strokeColor=#6F0000;fontStyle=1" parent="7" vertex="1">
                    <mxGeometry width="42.12" height="42.12" as="geometry"/>
                </mxCell>
                <mxCell id="36" value="&lt;b&gt;Generic step&lt;/b&gt;" style="rounded=0;whiteSpace=wrap;html=1;fillColor=#e1d5e7;strokeColor=#9673a6;fontColor=#000000;" parent="1" vertex="1">
                    <mxGeometry x="1440" y="1560" width="160" height="40" as="geometry"/>
                </mxCell>
                <mxCell id="39" value="subroutine / subprogram" style="shape=process;whiteSpace=wrap;html=1;backgroundOutline=1;fontSize=13;fillColor=#647687;fontColor=#ffffff;fontStyle=1;strokeColor=#FFFFFF;" parent="1" vertex="1">
                    <mxGeometry x="1440" y="1880" width="160" height="40" as="geometry"/>
                </mxCell>
                <mxCell id="97" value="" style="group" parent="1" vertex="1" connectable="0">
                    <mxGeometry x="-170" y="30" width="1360" height="1340" as="geometry"/>
                </mxCell>
                <mxCell id="3" value="&lt;b&gt;bash docker/module.bash install&lt;/b&gt;" style="rounded=0;whiteSpace=wrap;html=1;fillColor=#e1d5e7;strokeColor=#9673a6;fontColor=#000000;" parent="97" vertex="1">
                    <mxGeometry y="170" width="210" height="40" as="geometry"/>
                </mxCell>
                <mxCell id="11" value="Start" style="ellipse;whiteSpace=wrap;html=1;fontSize=17;fillColor=#e51400;strokeColor=#B20000;fontColor=#ffffff;fontStyle=1" parent="97" vertex="1">
                    <mxGeometry x="25" width="160" height="40" as="geometry"/>
                </mxCell>
                <mxCell id="34" style="edgeStyle=orthogonalEdgeStyle;rounded=0;orthogonalLoop=1;jettySize=auto;html=1;" parent="97" source="12" target="3" edge="1">
                    <mxGeometry relative="1" as="geometry"/>
                </mxCell>
                <mxCell id="35" value="INSTALL" style="edgeLabel;html=1;align=center;verticalAlign=middle;resizable=0;points=[];" parent="34" vertex="1" connectable="0">
                    <mxGeometry x="0.2801" y="-3" relative="1" as="geometry">
                        <mxPoint x="-23" y="-3" as="offset"/>
                    </mxGeometry>
                </mxCell>
                <mxCell id="12" value="&lt;b&gt;bash project.bash install&lt;/b&gt;" style="shape=parallelogram;perimeter=parallelogramPerimeter;whiteSpace=wrap;html=1;fixedSize=1;fillColor=#ffe6cc;strokeColor=#d79b00;fontColor=#000000;" parent="97" vertex="1">
                    <mxGeometry x="5" y="80" width="200" height="40" as="geometry"/>
                </mxCell>
                <mxCell id="13" style="edgeStyle=orthogonalEdgeStyle;rounded=0;orthogonalLoop=1;jettySize=auto;html=1;" parent="97" source="11" target="12" edge="1">
                    <mxGeometry relative="1" as="geometry"/>
                </mxCell>
                <mxCell id="40" value="&lt;span style=&quot;color: rgb(240 , 240 , 240) ; font-weight: 400&quot;&gt;- pre-install() - install docker container&lt;/span&gt;&lt;br style=&quot;color: rgb(240 , 240 , 240) ; font-weight: 400&quot;&gt;&lt;span style=&quot;color: rgb(240 , 240 , 240) ; font-weight: 400&quot;&gt;- install() - configure wordpress with variables from `config.dev.env`&lt;/span&gt;" style="shape=process;whiteSpace=wrap;html=1;backgroundOutline=1;fontSize=13;fillColor=#647687;fontColor=#ffffff;fontStyle=1;strokeColor=#FFFFFF;align=left;" parent="97" vertex="1">
                    <mxGeometry x="130" y="250" width="500" height="40" as="geometry"/>
                </mxCell>
                <mxCell id="87" style="edgeStyle=orthogonalEdgeStyle;rounded=0;orthogonalLoop=1;jettySize=auto;html=1;entryX=0;entryY=0.5;entryDx=0;entryDy=0;fontSize=13;" parent="97" source="3" target="40" edge="1">
                    <mxGeometry relative="1" as="geometry"/>
                </mxCell>
                <mxCell id="41" value="&lt;b&gt;bash assets/module.bash install&lt;/b&gt;" style="rounded=0;whiteSpace=wrap;html=1;fillColor=#e1d5e7;strokeColor=#9673a6;fontColor=#000000;" parent="97" vertex="1">
                    <mxGeometry y="490" width="210" height="40" as="geometry"/>
                </mxCell>
                <mxCell id="43" value="&lt;span style=&quot;color: rgb(240 , 240 , 240) ; font-weight: 400&quot;&gt;- install() - install backed-up previously uploaded assets&lt;/span&gt;" style="shape=process;whiteSpace=wrap;html=1;backgroundOutline=1;fontSize=13;fillColor=#647687;fontColor=#ffffff;fontStyle=1;strokeColor=#FFFFFF;align=left;" parent="97" vertex="1">
                    <mxGeometry x="130" y="570" width="500" height="40" as="geometry"/>
                </mxCell>
                <mxCell id="85" style="edgeStyle=orthogonalEdgeStyle;rounded=0;orthogonalLoop=1;jettySize=auto;html=1;entryX=0;entryY=0.5;entryDx=0;entryDy=0;fontSize=13;" parent="97" source="41" target="43" edge="1">
                    <mxGeometry relative="1" as="geometry"/>
                </mxCell>
                <mxCell id="44" value="&lt;b&gt;bash build/module.bash install&lt;/b&gt;" style="rounded=0;whiteSpace=wrap;html=1;fillColor=#e1d5e7;strokeColor=#9673a6;fontColor=#000000;" parent="97" vertex="1">
                    <mxGeometry y="330" width="210" height="40" as="geometry"/>
                </mxCell>
                <mxCell id="49" style="edgeStyle=orthogonalEdgeStyle;rounded=0;orthogonalLoop=1;jettySize=auto;html=1;fontSize=13;" parent="97" source="40" target="44" edge="1">
                    <mxGeometry relative="1" as="geometry">
                        <Array as="points">
                            <mxPoint x="350" y="310"/>
                            <mxPoint x="105" y="310"/>
                        </Array>
                    </mxGeometry>
                </mxCell>
                <mxCell id="82" style="edgeStyle=orthogonalEdgeStyle;rounded=0;orthogonalLoop=1;jettySize=auto;html=1;entryX=0.5;entryY=0;entryDx=0;entryDy=0;fontSize=13;" parent="97" source="47" target="41" edge="1">
                    <mxGeometry relative="1" as="geometry"/>
                </mxCell>
                <mxCell id="47" value="&lt;span style=&quot;color: rgb(240 , 240 , 240) ; font-weight: 400&quot;&gt;- install() - remove pre-installed themes - &lt;/span&gt;&lt;font color=&quot;#ff9999&quot;&gt;TO CONFIGURE&lt;/font&gt;" style="shape=process;whiteSpace=wrap;html=1;backgroundOutline=1;fontSize=13;fillColor=#647687;fontColor=#ffffff;fontStyle=1;strokeColor=#FFFFFF;align=left;" parent="97" vertex="1">
                    <mxGeometry x="130" y="410" width="500" height="40" as="geometry"/>
                </mxCell>
                <mxCell id="86" style="edgeStyle=orthogonalEdgeStyle;rounded=0;orthogonalLoop=1;jettySize=auto;html=1;entryX=0;entryY=0.5;entryDx=0;entryDy=0;fontSize=13;" parent="97" source="44" target="47" edge="1">
                    <mxGeometry relative="1" as="geometry"/>
                </mxCell>
                <mxCell id="52" value="&lt;b&gt;bash src/module.bash install&lt;/b&gt;" style="rounded=0;whiteSpace=wrap;html=1;fillColor=#e1d5e7;strokeColor=#9673a6;fontColor=#000000;" parent="97" vertex="1">
                    <mxGeometry y="650" width="210" height="40" as="geometry"/>
                </mxCell>
                <mxCell id="84" style="edgeStyle=orthogonalEdgeStyle;rounded=0;orthogonalLoop=1;jettySize=auto;html=1;fontSize=13;" parent="97" source="43" target="52" edge="1">
                    <mxGeometry relative="1" as="geometry"/>
                </mxCell>
                <mxCell id="54" value="&lt;span style=&quot;color: rgb(240 , 240 , 240) ; font-weight: 400&quot;&gt;- install() - install backed-up previously uploaded assets&lt;/span&gt;" style="shape=process;whiteSpace=wrap;html=1;backgroundOutline=1;fontSize=13;fillColor=#647687;fontColor=#ffffff;fontStyle=1;strokeColor=#FFFFFF;align=left;" parent="97" vertex="1">
                    <mxGeometry x="130" y="730" width="500" height="40" as="geometry"/>
                </mxCell>
                <mxCell id="55" style="edgeStyle=orthogonalEdgeStyle;rounded=0;orthogonalLoop=1;jettySize=auto;html=1;entryX=0;entryY=0.5;entryDx=0;entryDy=0;fontSize=13;" parent="97" source="52" target="54" edge="1">
                    <mxGeometry relative="1" as="geometry"/>
                </mxCell>
                <mxCell id="58" value="&lt;b&gt;npm install - install Front-end dependencies&lt;/b&gt;" style="rounded=0;whiteSpace=wrap;html=1;fillColor=#e1d5e7;strokeColor=#9673a6;fontColor=#000000;" parent="97" vertex="1">
                    <mxGeometry x="590" y="810" width="360" height="40" as="geometry"/>
                </mxCell>
                <mxCell id="60" value="&lt;b&gt;RUN npm run build - build and compile CSS and JS &lt;br&gt;&lt;/b&gt;&lt;font color=&quot;#ff9999&quot; style=&quot;font-size: 13px ; font-weight: 700 ; text-align: left&quot;&gt;TO CONFIGURE&lt;/font&gt;&lt;b&gt;&lt;br&gt;&lt;/b&gt;" style="rounded=0;whiteSpace=wrap;html=1;fillColor=#e1d5e7;strokeColor=#9673a6;fontColor=#000000;" parent="97" vertex="1">
                    <mxGeometry x="1000" y="810" width="360" height="40" as="geometry"/>
                </mxCell>
                <mxCell id="61" style="edgeStyle=orthogonalEdgeStyle;rounded=0;orthogonalLoop=1;jettySize=auto;html=1;fontSize=13;" parent="97" source="58" target="60" edge="1">
                    <mxGeometry relative="1" as="geometry"/>
                </mxCell>
                <mxCell id="91" style="edgeStyle=orthogonalEdgeStyle;rounded=0;orthogonalLoop=1;jettySize=auto;html=1;fontSize=13;" parent="97" source="62" target="58" edge="1">
                    <mxGeometry relative="1" as="geometry"/>
                </mxCell>
                <mxCell id="62" value="&lt;span style=&quot;color: rgb(240 , 240 , 240) ; font-weight: 400&quot;&gt;- pre-install()&lt;/span&gt;" style="shape=process;whiteSpace=wrap;html=1;backgroundOutline=1;fontSize=13;fillColor=#647687;fontColor=#ffffff;fontStyle=1;strokeColor=#FFFFFF;align=left;" parent="97" vertex="1">
                    <mxGeometry x="690" y="730" width="160" height="40" as="geometry"/>
                </mxCell>
                <mxCell id="89" style="edgeStyle=orthogonalEdgeStyle;rounded=0;orthogonalLoop=1;jettySize=auto;html=1;entryX=0;entryY=0.5;entryDx=0;entryDy=0;fontSize=13;" parent="97" source="54" target="62" edge="1">
                    <mxGeometry relative="1" as="geometry"/>
                </mxCell>
                <mxCell id="64" value="&lt;span style=&quot;color: rgb(240 , 240 , 240) ; font-weight: 400&quot;&gt;- install-src-to-build&lt;/span&gt;" style="shape=process;whiteSpace=wrap;html=1;backgroundOutline=1;fontSize=13;fillColor=#647687;fontColor=#ffffff;fontStyle=1;strokeColor=#FFFFFF;align=left;" parent="97" vertex="1">
                    <mxGeometry x="1100" y="890" width="160" height="40" as="geometry"/>
                </mxCell>
                <mxCell id="92" style="edgeStyle=orthogonalEdgeStyle;rounded=0;orthogonalLoop=1;jettySize=auto;html=1;fontSize=13;" parent="97" source="60" target="64" edge="1">
                    <mxGeometry relative="1" as="geometry"/>
                </mxCell>
                <mxCell id="66" value="&lt;b&gt;copy wordpress specific files from `./src` to `./build`&lt;br&gt;&lt;/b&gt;" style="rounded=0;whiteSpace=wrap;html=1;fillColor=#e1d5e7;strokeColor=#9673a6;fontColor=#000000;" parent="97" vertex="1">
                    <mxGeometry x="1000" y="970" width="360" height="40" as="geometry"/>
                </mxCell>
                <mxCell id="67" style="edgeStyle=orthogonalEdgeStyle;rounded=0;orthogonalLoop=1;jettySize=auto;html=1;fontSize=13;" parent="97" source="64" target="66" edge="1">
                    <mxGeometry relative="1" as="geometry"/>
                </mxCell>
                <mxCell id="68" value="&lt;b&gt;bash db/module.bash install&lt;/b&gt;" style="rounded=0;whiteSpace=wrap;html=1;fillColor=#e1d5e7;strokeColor=#9673a6;fontColor=#000000;" parent="97" vertex="1">
                    <mxGeometry y="1050" width="210" height="40" as="geometry"/>
                </mxCell>
                <mxCell id="96" style="edgeStyle=orthogonalEdgeStyle;rounded=0;orthogonalLoop=1;jettySize=auto;html=1;fontSize=13;" parent="97" source="66" target="68" edge="1">
                    <mxGeometry relative="1" as="geometry">
                        <Array as="points">
                            <mxPoint x="1180" y="1030"/>
                            <mxPoint x="105" y="1030"/>
                        </Array>
                    </mxGeometry>
                </mxCell>
                <mxCell id="70" value="&lt;span style=&quot;color: rgb(240 , 240 , 240) ; font-weight: 400&quot;&gt;- install() - install previously backed-up database&lt;/span&gt;" style="shape=process;whiteSpace=wrap;html=1;backgroundOutline=1;fontSize=13;fillColor=#647687;fontColor=#ffffff;fontStyle=1;strokeColor=#FFFFFF;align=left;" parent="97" vertex="1">
                    <mxGeometry x="130" y="1110" width="500" height="40" as="geometry"/>
                </mxCell>
                <mxCell id="71" style="edgeStyle=orthogonalEdgeStyle;rounded=0;orthogonalLoop=1;jettySize=auto;html=1;entryX=0;entryY=0.5;entryDx=0;entryDy=0;fontSize=13;" parent="97" source="68" target="70" edge="1">
                    <mxGeometry relative="1" as="geometry"/>
                </mxCell>
                <mxCell id="72" value="&lt;span style=&quot;color: rgb(240 , 240 , 240) ; font-weight: 400&quot;&gt;- pre-install()&lt;/span&gt;" style="shape=process;whiteSpace=wrap;html=1;backgroundOutline=1;fontSize=13;fillColor=#647687;fontColor=#ffffff;fontStyle=1;strokeColor=#FFFFFF;align=left;" parent="97" vertex="1">
                    <mxGeometry x="690" y="1110" width="160" height="40" as="geometry"/>
                </mxCell>
                <mxCell id="73" style="edgeStyle=orthogonalEdgeStyle;rounded=0;orthogonalLoop=1;jettySize=auto;html=1;fontSize=13;" parent="97" source="70" target="72" edge="1">
                    <mxGeometry relative="1" as="geometry"/>
                </mxCell>
                <mxCell id="74" value="&lt;b&gt;copy backed-up database file to `./build`&lt;br&gt;&lt;/b&gt;" style="rounded=0;whiteSpace=wrap;html=1;fillColor=#e1d5e7;strokeColor=#9673a6;fontColor=#000000;" parent="97" vertex="1">
                    <mxGeometry x="590" y="1190" width="360" height="40" as="geometry"/>
                </mxCell>
                <mxCell id="94" style="edgeStyle=orthogonalEdgeStyle;rounded=0;orthogonalLoop=1;jettySize=auto;html=1;fontSize=13;" parent="97" source="72" target="74" edge="1">
                    <mxGeometry relative="1" as="geometry"/>
                </mxCell>
                <mxCell id="76" value="&lt;b&gt;restore database from copied back-up file&lt;br&gt;&lt;/b&gt;" style="rounded=0;whiteSpace=wrap;html=1;fillColor=#e1d5e7;strokeColor=#9673a6;fontColor=#000000;" parent="97" vertex="1">
                    <mxGeometry x="590" y="1260" width="360" height="40" as="geometry"/>
                </mxCell>
                <mxCell id="77" style="edgeStyle=orthogonalEdgeStyle;rounded=0;orthogonalLoop=1;jettySize=auto;html=1;fontSize=13;" parent="97" source="74" target="76" edge="1">
                    <mxGeometry relative="1" as="geometry"/>
                </mxCell>
                <mxCell id="78" value="End" style="ellipse;whiteSpace=wrap;html=1;fontSize=17;fillColor=#e51400;strokeColor=#B20000;fontColor=#ffffff;fontStyle=1" parent="97" vertex="1">
                    <mxGeometry x="25" y="1300" width="160" height="40" as="geometry"/>
                </mxCell>
                <mxCell id="79" style="edgeStyle=orthogonalEdgeStyle;rounded=0;orthogonalLoop=1;jettySize=auto;html=1;entryX=0.5;entryY=0;entryDx=0;entryDy=0;fontSize=13;" parent="97" source="76" target="78" edge="1">
                    <mxGeometry relative="1" as="geometry"/>
                </mxCell>
                <mxCell id="80" style="edgeStyle=orthogonalEdgeStyle;rounded=0;orthogonalLoop=1;jettySize=auto;html=1;exitX=0.5;exitY=1;exitDx=0;exitDy=0;entryX=0.5;entryY=0.75;entryDx=0;entryDy=0;entryPerimeter=0;fontSize=13;" parent="97" source="44" target="44" edge="1">
                    <mxGeometry relative="1" as="geometry"/>
                </mxCell>
                <mxCell id="103" style="edgeStyle=orthogonalEdgeStyle;rounded=0;orthogonalLoop=1;jettySize=auto;html=1;" edge="1" parent="1" source="98" target="102">
                    <mxGeometry relative="1" as="geometry"/>
                </mxCell>
                <mxCell id="98" value="Start" style="ellipse;whiteSpace=wrap;html=1;fontSize=17;fillColor=#e51400;strokeColor=#B20000;fontColor=#ffffff;fontStyle=1" vertex="1" parent="1">
                    <mxGeometry x="-150" y="1520" width="160" height="40" as="geometry"/>
                </mxCell>
                <mxCell id="105" style="edgeStyle=orthogonalEdgeStyle;rounded=0;orthogonalLoop=1;jettySize=auto;html=1;entryX=0;entryY=0.5;entryDx=0;entryDy=0;" edge="1" parent="1" source="99" target="104">
                    <mxGeometry relative="1" as="geometry"/>
                </mxCell>
                <mxCell id="99" value="&lt;b&gt;bash assets/module.bash uninstall&lt;/b&gt;" style="rounded=0;whiteSpace=wrap;html=1;fillColor=#e1d5e7;strokeColor=#9673a6;fontColor=#000000;" vertex="1" parent="1">
                    <mxGeometry x="-175" y="1680" width="215" height="40" as="geometry"/>
                </mxCell>
                <mxCell id="100" style="edgeStyle=orthogonalEdgeStyle;rounded=0;orthogonalLoop=1;jettySize=auto;html=1;" edge="1" parent="1" source="102" target="99">
                    <mxGeometry relative="1" as="geometry"/>
                </mxCell>
                <mxCell id="101" value="UNINSTALL" style="edgeLabel;html=1;align=center;verticalAlign=middle;resizable=0;points=[];" vertex="1" connectable="0" parent="100">
                    <mxGeometry x="0.2801" y="-3" relative="1" as="geometry">
                        <mxPoint x="-23" y="-3" as="offset"/>
                    </mxGeometry>
                </mxCell>
                <mxCell id="102" value="&lt;b&gt;bash project.bash uninstall&lt;/b&gt;" style="shape=parallelogram;perimeter=parallelogramPerimeter;whiteSpace=wrap;html=1;fixedSize=1;fillColor=#ffe6cc;strokeColor=#d79b00;fontColor=#000000;" vertex="1" parent="1">
                    <mxGeometry x="-170" y="1600" width="200" height="40" as="geometry"/>
                </mxCell>
                <mxCell id="107" style="edgeStyle=orthogonalEdgeStyle;rounded=0;orthogonalLoop=1;jettySize=auto;html=1;entryX=0.5;entryY=0;entryDx=0;entryDy=0;" edge="1" parent="1" source="104" target="106">
                    <mxGeometry relative="1" as="geometry"/>
                </mxCell>
                <mxCell id="104" value="&lt;span style=&quot;font-weight: normal&quot;&gt;- uninstall() - backup uploads and edits done through authoring&lt;/span&gt;" style="shape=process;whiteSpace=wrap;html=1;backgroundOutline=1;fontSize=13;fillColor=#647687;fontColor=#ffffff;fontStyle=1;strokeColor=#FFFFFF;" vertex="1" parent="1">
                    <mxGeometry x="-40" y="1760" width="500" height="40" as="geometry"/>
                </mxCell>
                <mxCell id="109" style="edgeStyle=orthogonalEdgeStyle;rounded=0;orthogonalLoop=1;jettySize=auto;html=1;entryX=0.5;entryY=0;entryDx=0;entryDy=0;" edge="1" parent="1" source="106" target="108">
                    <mxGeometry relative="1" as="geometry"/>
                </mxCell>
                <mxCell id="106" value="&lt;b&gt;bash db/module.bash uninstall&lt;/b&gt;" style="rounded=0;whiteSpace=wrap;html=1;fillColor=#e1d5e7;strokeColor=#9673a6;fontColor=#000000;" vertex="1" parent="1">
                    <mxGeometry x="-175" y="1840" width="215" height="40" as="geometry"/>
                </mxCell>
                <mxCell id="111" style="edgeStyle=orthogonalEdgeStyle;rounded=0;orthogonalLoop=1;jettySize=auto;html=1;" edge="1" parent="1" source="108" target="110">
                    <mxGeometry relative="1" as="geometry"/>
                </mxCell>
                <mxCell id="108" value="&lt;span style=&quot;font-weight: normal&quot;&gt;- uninstall() - save old backup and generate new database backup&lt;/span&gt;" style="shape=process;whiteSpace=wrap;html=1;backgroundOutline=1;fontSize=13;fillColor=#647687;fontColor=#ffffff;fontStyle=1;strokeColor=#FFFFFF;" vertex="1" parent="1">
                    <mxGeometry x="-40" y="1920" width="500" height="40" as="geometry"/>
                </mxCell>
                <mxCell id="113" style="edgeStyle=orthogonalEdgeStyle;rounded=0;orthogonalLoop=1;jettySize=auto;html=1;" edge="1" parent="1" source="110" target="112">
                    <mxGeometry relative="1" as="geometry"/>
                </mxCell>
                <mxCell id="110" value="&lt;b&gt;bash src/module.bash uninstall&lt;/b&gt;" style="rounded=0;whiteSpace=wrap;html=1;fillColor=#e1d5e7;strokeColor=#9673a6;fontColor=#000000;" vertex="1" parent="1">
                    <mxGeometry x="-175" y="2000" width="215" height="40" as="geometry"/>
                </mxCell>
                <mxCell id="115" style="edgeStyle=orthogonalEdgeStyle;rounded=0;orthogonalLoop=1;jettySize=auto;html=1;" edge="1" parent="1" source="112" target="114">
                    <mxGeometry relative="1" as="geometry"/>
                </mxCell>
                <mxCell id="112" value="&lt;span style=&quot;font-weight: normal&quot;&gt;- uninstall() - backup updated vendor plugins&lt;/span&gt;" style="shape=process;whiteSpace=wrap;html=1;backgroundOutline=1;fontSize=13;fillColor=#647687;fontColor=#ffffff;fontStyle=1;strokeColor=#FFFFFF;" vertex="1" parent="1">
                    <mxGeometry x="-40" y="2080" width="500" height="40" as="geometry"/>
                </mxCell>
                <mxCell id="117" style="edgeStyle=orthogonalEdgeStyle;rounded=0;orthogonalLoop=1;jettySize=auto;html=1;" edge="1" parent="1" source="114" target="116">
                    <mxGeometry relative="1" as="geometry"/>
                </mxCell>
                <mxCell id="114" value="&lt;b&gt;bash docker/module.bash uninstall&lt;/b&gt;" style="rounded=0;whiteSpace=wrap;html=1;fillColor=#e1d5e7;strokeColor=#9673a6;fontColor=#000000;" vertex="1" parent="1">
                    <mxGeometry x="-175" y="2160" width="215" height="40" as="geometry"/>
                </mxCell>
                <mxCell id="119" style="edgeStyle=orthogonalEdgeStyle;rounded=0;orthogonalLoop=1;jettySize=auto;html=1;" edge="1" parent="1" source="116" target="118">
                    <mxGeometry relative="1" as="geometry"/>
                </mxCell>
                <mxCell id="116" value="&lt;span style=&quot;font-weight: normal&quot;&gt;- uninstall() -&amp;nbsp;stops containers and removes containers, networks, volumes, and images&lt;/span&gt;" style="shape=process;whiteSpace=wrap;html=1;backgroundOutline=1;fontSize=13;fillColor=#647687;fontColor=#ffffff;fontStyle=1;strokeColor=#FFFFFF;" vertex="1" parent="1">
                    <mxGeometry x="-40" y="2240" width="500" height="40" as="geometry"/>
                </mxCell>
                <mxCell id="121" style="edgeStyle=orthogonalEdgeStyle;rounded=0;orthogonalLoop=1;jettySize=auto;html=1;" edge="1" parent="1" source="118" target="120">
                    <mxGeometry relative="1" as="geometry"/>
                </mxCell>
                <mxCell id="118" value="&lt;b&gt;bash build/module.bash uninstall&lt;/b&gt;" style="rounded=0;whiteSpace=wrap;html=1;fillColor=#e1d5e7;strokeColor=#9673a6;fontColor=#000000;" vertex="1" parent="1">
                    <mxGeometry x="-175" y="2320" width="215" height="40" as="geometry"/>
                </mxCell>
                <mxCell id="120" value="&lt;span style=&quot;font-weight: normal&quot;&gt;- uninstall() -&amp;nbsp;delete/remove ./build/mysql and ./build/wordpress&lt;/span&gt;" style="shape=process;whiteSpace=wrap;html=1;backgroundOutline=1;fontSize=13;fillColor=#647687;fontColor=#ffffff;fontStyle=1;strokeColor=#FFFFFF;" vertex="1" parent="1">
                    <mxGeometry x="-40" y="2400" width="500" height="40" as="geometry"/>
                </mxCell>
            </root>
        </mxGraphModel>
    </diagram>
</mxfile>